# xmcd
#
# Track frame offsets: 
#        150
#        17360
#        37495
#        65912
#        78232
#        96510
#        114202
#        129275
#        154105
#        168205
#        186215
#        208170
#
# Disc length: 2952 seconds
#
# Revision: 0
# Processed by: cddbd v1.5.2PL0 Copyright (c) Steve Scherf et al.
# Submitted via: ExactAudioCopy v1.0b1
#
DISCID=9f0b860c
DTITLE=Adrian Duke - Never Find Another
DYEAR=1998
DGENRE=Blues
TTITLE0=Never Find Another
TTITLE1=Why Can't You Jus Ac Rite
TTITLE2=Rainy Night In Georgia
TTITLE3=Change My Name
TTITLE4=Just As A Dream
TTITLE5=Save The Bones For Henry Jones, 'Cause Henry Doesn't Eat No Me
TTITLE5=at
TTITLE6=Made A Fool Of Me
TTITLE7=Let's Go Get Stoned
TTITLE8=Just The Man
TTITLE9=Duke, Party of 3
TTITLE10=One Wish
TTITLE11=Get On The Right Track
EXTD=
EXTT0=
EXTT1=
EXTT2=
EXTT3=
EXTT4=
EXTT5=
EXTT6=
EXTT7=
EXTT8=
EXTT9=
EXTT10=
EXTT11=
PLAYORDER=
